# xmcd CD database file
#
# Track frame offsets:
#	150
#	21604
#	39773
#	60202
#	84839
#	108066
#	126788
#	147662
#	168598
#	193240
#	211271
#	235105
#	253583
#	270886
#	289488
#	309952
#
# Disc length: 4370 seconds
#
# Revision: 7
# Processed by: cddbd v1.5.1PL0 Copyright (c) Steve Scherf et al.
# Submitted via: CDex 1.50Beta7
#
DISCID=d9111010
DTITLE=CELINE DION - ALL THE WAT... A DECADE OF SONG
DYEAR=2000
DGENRE=Pop
TTITLE0=THE POWER OF LOVE ( RADIO EDIT )
TTITLE1=BEAUTY AND THE BEAST ( DUET WITH PEABO BRYSON )
TTITLE2=BECAUSE YOU LOVED ME ( THEME FROM "UP CLOSE and PERSONAL" )
TTITLE3=IT'S ALL COMING BACK TO ME NOW
TTITLE4=ALL BY MYSELF
TTITLE5=IMMORTALITY
TTITLE6=TO LOVE YOU MORE
TTITLE7=MY HEART WILL GO ON ( LOVE THEME FROM "TITANIC" )
TTITLE8=I'M YOUR ANGEL ( DUET WITH R. KELLY )
TTITLE9=THAT'S THE WAY IT IS
TTITLE10=IF WALLS COULD TALK
TTITLE11=THE FIRST TIME EVER I SAW YOUR FACE
TTITLE12=ALL THE WAY ( DUET WITH FRANK SINATRA )
TTITLE13=THEN YOU LOOK AT ME
TTITLE14=I WANT YOU TO NEED ME
TTITLE15=LIVE FOR THE ONE YOU LOVE
EXTD=YEAR: 2000
EXTT0=
EXTT1=
EXTT2=
EXTT3=
EXTT4=
EXTT5=
EXTT6=
EXTT7=
EXTT8=
EXTT9=
EXTT10=
EXTT11=
EXTT12=
EXTT13=
EXTT14=
EXTT15=
PLAYORDER=
